<svg id="Capa_1" enable-background="new 0 0 512 512" height="512" viewBox="0 0 512 512" width="512" xmlns="http://www.w3.org/2000/svg"><g><g><path d="m122.076 357.473h309.054v123.622h-309.054c-34.137 0-61.811-27.674-61.811-61.811.001-34.138 27.674-61.811 61.811-61.811z" fill="#fbf1cf"/></g><g><path d="m60.266 419.284c0-34.137 27.674-61.811 61.811-61.811h113.32v30.905c-17.069 0-30.905 13.837-30.905 30.905s13.837 30.905 30.905 30.905v30.905h-113.32c-34.138.002-61.811-27.672-61.811-61.809z" fill="#f7dfb7"/></g><g><path d="m111.775 419.284c0 17.069 13.837 30.905 30.905 30.905h288.451c17.069 0 30.905 13.837 30.905 30.905 0 17.069-13.837 30.905-30.905 30.905h-288.451c-51.206 0-92.716-41.51-92.716-92.716v-326.567c0-51.205 41.51-92.716 92.716-92.716h288.451c17.069 0 30.905 13.837 30.905 30.905v326.567c0 17.069-13.837 30.905-30.905 30.905h-288.451c-17.069.001-30.905 13.838-30.905 30.907z" fill="#4e5660"/></g><g><path d="m204.491 481.095c0-17.069 13.837-30.905 30.905-30.905h-92.716c-17.069 0-30.905-13.837-30.905-30.905s13.837-30.905 30.905-30.905h92.716c-51.206 0-92.716-41.511-92.716-92.716v-202.948c0-51.205 41.511-92.716 92.716-92.716h-92.716c-51.206 0-92.716 41.511-92.716 92.716v326.567c0 51.206 41.51 92.716 92.716 92.716h92.716c-17.068.001-30.905-13.836-30.905-30.904z" fill="#3a4351"/></g><g><path d="m359.018 138.302h-41.207v-41.207c0-17.069-13.837-30.905-30.905-30.905-17.069-.001-30.906 13.836-30.906 30.905v41.207h-41.207c-17.069 0-30.905 13.837-30.905 30.905 0 17.069 13.837 30.905 30.905 30.905h41.207v91.171c0 17.069 13.837 30.905 30.905 30.905 17.069 0 30.905-13.837 30.905-30.905v-91.171h41.207c17.069 0 30.905-13.837 30.905-30.905.002-17.068-13.835-30.905-30.904-30.905z" fill="#f6ee86"/></g><g><path d="m286.905 169.207c0-17.069 13.837-30.905 30.905-30.905v-41.207c0-17.069-13.837-30.905-30.905-30.905-17.068-.001-30.905 13.836-30.905 30.905v41.207h-41.207c-17.069 0-30.905 13.837-30.905 30.905s13.837 30.905 30.905 30.905h41.207v91.171c0 17.069 13.837 30.905 30.905 30.905 17.069 0 30.905-13.837 30.905-30.905v-91.171c-17.068.001-30.905-13.836-30.905-30.905z" fill="#eed076"/></g></g></svg>